<?xml version="1.0" encoding="utf-8"?>
<!-- Generator: Adobe Illustrator 25.4.1, SVG Export Plug-In . SVG Version: 6.00 Build 0)  -->
<svg version="1.1" id="Layer_1" xmlns="http://www.w3.org/2000/svg" xmlns:xlink="http://www.w3.org/1999/xlink" x="0px" y="0px"
	 viewBox="0 0 179.4 112.8" style="enable-background:new 0 0 179.4 112.8;" xml:space="preserve">
<style type="text/css">
	.st0{fill:#3A2050;}
</style>
<g>
	<g>
		<path class="st0" d="M0,49.2c7.1,0,8.8-5.2,8.8-9.9c0-3.9-0.4-7.7-0.8-11.5c-0.4-3.9-0.8-7.6-0.8-11.6c0-11,6.7-14.9,13.8-14.9h1
			v4.3h-1.8c-5.7,0-7.8,3.8-7.8,10.1c0,3.7,0.4,7.1,0.8,10.5c0.4,3.5,0.8,7,0.8,10.5c0.2,10.9-3.3,13.1-8.1,14.4v0.2
			c4.8,1.3,8.3,3.8,8.1,14.7c0,3.4-0.4,6.9-0.8,10.4s-0.8,7.1-0.8,10.9c0,6.3,2.2,10.1,7.8,10.1H22v4.3h-1
			c-7.1,0-13.8-3.9-13.8-14.9c0-4,0.4-8,0.8-11.9c0.4-3.8,0.8-7.7,0.8-11.5C8.8,58.7,7,53.3,0,53.3V49.2z"/>
		<path class="st0" d="M43.3,108.3c2.8-0.9,6.3-2.2,8.3-5.6c2.2-3.8,3-8.5,3-21.4V26.8H60v57.1c0,12.3-1.1,17.9-4.9,22.8
			c-3.2,3.8-8.1,5.8-10.6,6.1L43.3,108.3z M61.5,11.3c0,2.9-1.4,4.7-4.2,4.7c-2.4,0-4-1.8-4-4.7c0-2.8,1.6-4.7,4.2-4.7
			C60.1,6.6,61.5,8.5,61.5,11.3z"/>
		<path class="st0" d="M93.5,87.5c0.1-2.3,0.5-9.3,0.5-12.4V0h5.4v34.5h0.2c3.3-7.1,8.2-8.7,12.9-8.7c8.1,0,16.3,9.2,16.3,31.3
			c0,22.4-9.5,31.3-17.6,31.3c-7.3,0-10.4-4.8-12.1-9.5h-0.4l-0.5,8.5L93.5,87.5L93.5,87.5z M99.4,66.3c0,1.3,0,2.5,0.2,3.7
			c2.8,11.9,8.1,13.8,11.2,13.8c9.2,0,12.3-12.9,12.3-26.5c0-13.3-3.2-26.5-12.5-26.5c-5.7,0-10.4,7.5-11.1,14.2
			c-0.1,1.5-0.1,2.9-0.1,4.4L99.4,66.3L99.4,66.3z"/>
		<path class="st0" d="M179.4,53.2c-7.1,0-8.9,5.4-8.9,10.1c0,3.8,0.4,7.7,0.8,11.5c0.4,3.9,0.8,7.8,0.8,11.9
			c0,11-6.7,14.9-13.8,14.9h-1v-4.3h1.8c5.7-0.8,7.8-3.8,7.8-10.1c0-3.8-0.4-7.3-0.8-10.9c-0.4-3.4-0.8-6.9-0.8-10.4
			c-0.2-10.9,3.3-13.4,8.1-14.7V51c-4.8-1.3-8.3-3.5-8.1-14.4c0-3.5,0.4-7,0.8-10.5c0.4-3.4,0.8-6.8,0.8-10.5
			c0-6.3-2.1-9.4-7.8-10.1h-1.8V1.2h1c7.1,0,13.8,3.9,13.8,14.9c0,4-0.4,7.7-0.8,11.6c-0.4,3.8-0.8,7.6-0.8,11.5
			c0,4.7,1.8,9.9,8.9,9.9V53.2z"/>
	</g>
</g>
</svg>
