<?xml version="1.0" encoding="utf-8"?>
<!-- Generator: Adobe Illustrator 25.4.1, SVG Export Plug-In . SVG Version: 6.00 Build 0)  -->
<svg version="1.1" id="Layer_1" xmlns="http://www.w3.org/2000/svg" xmlns:xlink="http://www.w3.org/1999/xlink" x="0px" y="0px"
	 viewBox="0 0 300 140" style="enable-background:new 0 0 300 140;" xml:space="preserve">
<style type="text/css">
	.st0{fill:#6E4A8F;}
</style>
<g>
	<g>
		<g>
			<path class="st0" d="M33.18,66.74c6.52,0,8.07-3.83,8.07-7.46c0-3.31-0.36-6.51-0.72-9.7c-0.36-3.31-0.72-6.52-0.72-10.03
				c0-11.2,6.78-16.5,16.85-16.5h1.85v8.12h-1.75c-4.79,0-6.76,3.67-6.76,8.58c0,3,0.29,5.77,0.58,8.47
				c0.22,2.75,0.52,5.31,0.52,7.92c0.1,8.48-3.12,12.63-8.71,14.38v0.24c5.59,1.68,8.82,5.79,8.71,14.55c0,2.7-0.29,5.44-0.52,8.21
				c-0.29,2.75-0.58,5.5-0.58,8.28c0,4.91,1.43,8.79,6.9,8.79h1.61v8.12h-2.05c-8.98,0-16.65-4.2-16.65-16.43
				c0-3.5,0.36-6.82,0.72-10.2c0.36-3.26,0.72-6.58,0.72-9.84c0-3.35-1.54-7.56-8.07-7.56V66.74z"/>
			<path class="st0" d="M97.88,24.29h5.17v60.06c0,14.89-4.92,21.86-16.58,21.86c-1.8,0-3.36-0.12-4.8-0.6l0.48-4.44
				c1.08,0.24,2.52,0.36,3.96,0.36c7.81,0,11.77-3.12,11.77-17.42V24.29z"/>
			<path class="st0" d="M172.72,25.5c4.34-1.03,9.87-1.56,15.94-1.56c7.41,0,14.3,1.24,19.29,5.66c3.96,3.48,5.76,8.66,5.76,14.36
				c0,7.66-4.09,14.43-12.03,17.8v0.38c9.37,2.61,14.62,10.26,14.62,19.93c0,6.67-2.16,12-5.85,15.96
				c-4.72,5.23-12.62,7.8-24.27,7.8c-5.95,0-10.36-0.36-13.46-0.86V25.5z M185.47,58.07h3.78c6.53,0,11.81-5.26,11.81-12.68
				c0-6.63-3.09-11.75-11.07-11.75c-1.92,0-3.45,0.17-4.52,0.53V58.07z M185.47,95.49c1.06,0.24,2.39,0.34,4.04,0.34
				c7.84,0,13.52-4.69,13.52-13.92c0-9.49-6.53-14.19-13.87-14.25h-3.69V95.49z"/>
			<path class="st0" d="M264.22,72.7c-6.73,0-8.41,5.17-8.41,9.61c0,3.6,0.36,7.33,0.72,10.93c0.36,3.72,0.72,7.45,0.72,11.29
				c0,10.45-6.37,14.17-13.09,14.17h-0.96v-4.08h1.68c5.41-0.72,7.45-3.6,7.45-9.61c0-3.6-0.36-6.97-0.72-10.33
				c-0.36-3.24-0.72-6.61-0.72-9.85c-0.24-10.33,3.12-12.73,7.69-13.93v-0.24c-4.56-1.2-7.93-3.36-7.69-13.69
				c0-3.36,0.36-6.61,0.72-9.97c0.36-3.24,0.72-6.49,0.72-9.97c0-6.01-2.04-8.89-7.45-9.61h-1.68v-4.08h0.96
				c6.73,0,13.09,3.72,13.09,14.17c0,3.84-0.36,7.33-0.72,11.05c-0.36,3.6-0.72,7.21-0.72,10.93c0,4.44,1.68,9.37,8.41,9.37V72.7z"
				/>
		</g>
	</g>
	<g>
		<path class="st0" d="M139.38,11.45V127.5h-1.62V11.45H139.38z"/>
	</g>
</g>
</svg>
