<?xml version="1.0" encoding="utf-8"?>
<!-- Generator: Adobe Illustrator 25.4.1, SVG Export Plug-In . SVG Version: 6.00 Build 0)  -->
<svg version="1.1" id="Layer_1" xmlns="http://www.w3.org/2000/svg" xmlns:xlink="http://www.w3.org/1999/xlink" x="0px" y="0px"
	 viewBox="0 0 400 140" style="enable-background:new 0 0 400 140;" xml:space="preserve">
<g>
	<g>
		<path d="M18.93,42.83H22v35.71c0,8.86-2.93,13-9.85,13c-1.07,0-2-0.07-2.86-0.36l0.29-2.64c0.64,0.14,1.5,0.21,2.36,0.21
			c4.64,0,7-1.86,7-10.35V42.83z"/>
		<path d="M48.78,73.82c0,12.64-5.07,17.71-10.35,17.71c-4.86,0-9.93-5.07-9.93-17.71s5.07-17.71,10.43-17.71
			C43.78,56.11,48.78,61.18,48.78,73.82z M31.71,73.82c0,5.57,1.07,15,7,15c5.78,0,6.86-9.43,6.86-15s-1.07-15-7-15
			C32.78,58.83,31.71,68.25,31.71,73.82z"/>
		<path d="M55.42,64.61c0-2.57-0.21-5.78-0.29-7.93h2.93l0.14,5.57h0.14c0.86-3,3.86-6.14,7.43-6.14c0.21,0,0.43,0,0.64,0v3.36
			c-0.14,0-0.36,0-0.57,0c-4.43,0-7,4.36-7.28,8.57c-0.07,1-0.07,1.93-0.07,2.93v20h-3.07V64.61z"/>
		<path d="M89.13,41.54v42.42c0,1.71,0.21,5.71,0.29,7h-2.64l-0.29-4.57H86.2c-1,2.43-3.29,5.14-7.21,5.14
			c-4.86,0-9.57-5.14-9.57-17.57c0-12.28,5-17.85,9.93-17.85c2.21,0,4.93,0.93,6.57,4.43h0.14v-19H89.13z M86.06,69.61
			c0-0.79,0-1.64-0.07-2.43c-0.29-4.5-3.07-8.35-6.21-8.35c-5.36,0-7.14,7.35-7.14,15c0,7.71,1.93,15,6.71,15c2,0,5-1.07,6.57-7.64
			c0.14-0.71,0.14-1.57,0.14-2.36V69.61z"/>
		<path d="M109.91,90.96l-0.29-3.79h-0.21c-1.29,2.64-3.5,4.36-6.43,4.36c-4.21,0-7.57-3.57-7.57-9.43c0-8.28,6.21-12.14,14-12.21
			v-1.29c0-5.86-0.93-9.78-5.93-9.78c-1.71,0-3.5,0.64-4.86,1.64l-0.86-2.36c1.14-1,3.78-2,6.36-2c4.64,0,8.35,2.71,8.35,10.93
			v16.21c0,2.5,0,5.57,0.29,7.71H109.91z M109.41,72.54c-2.64,0-10.78,0.21-10.78,9.35c0,5.14,2.5,6.93,4.78,6.93
			c2.93,0,5.21-2.36,5.86-6.5c0.14-0.79,0.14-1.57,0.14-2.21V72.54z"/>
		<path d="M120.91,64.61c0-4.21-0.21-5.5-0.29-7.93h2.78l0.14,4.21h0.14c1.29-2.79,3.93-4.78,7.57-4.78s7.78,2.43,7.78,11.14v23.71
			h-3.07v-22.5c0-4.86-0.86-9.71-5.64-9.71c-2.79,0-5.5,2.43-6.21,7.14c-0.14,0.93-0.14,1.93-0.14,3v22.07h-3.07V64.61z"/>
		<path d="M158.55,43.54c2.58-0.61,5.87-0.93,9.48-0.93c4.41,0,8.5,0.74,11.47,3.37c2.35,2.07,3.43,5.15,3.43,8.54
			c0,4.55-2.43,8.58-7.15,10.58v0.22c5.57,1.55,8.69,6.1,8.69,11.85c0,3.97-1.29,7.13-3.48,9.49c-2.8,3.11-7.51,4.64-14.43,4.64
			c-3.54,0-6.16-0.21-8-0.51V43.54z M166.13,62.91h2.25c3.88,0,7.02-3.12,7.02-7.54c0-3.94-1.84-6.99-6.58-6.99
			c-1.14,0-2.05,0.1-2.69,0.32V62.91z M166.13,85.16c0.63,0.14,1.42,0.21,2.4,0.21c4.66,0,8.04-2.79,8.04-8.28
			c0-5.64-3.88-8.44-8.25-8.47h-2.19V85.16z"/>
		<path d="M196.26,75.62c0.08,7.77,3.69,9.88,7.75,9.88c2.54,0,4.69-0.57,6.24-1.24l1.08,5.49c-2.17,1.02-5.52,1.63-8.7,1.63
			c-8.96,0-13.77-6.5-13.77-17.26c0-11.5,5.51-18.5,12.94-18.5c7.31,0,11,6.61,11,15.93c0,1.98-0.08,3.16-0.2,4.07H196.26z
			 M205.72,70.2c0.06-5.58-1.77-8.9-4.47-8.9c-3.31,0-4.8,4.82-4.95,8.9H205.72z"/>
		<path d="M227.45,46.88v9.31h6.74v5.53h-6.74v18.03c0,4.26,1.65,5.34,3.56,5.34c0.9,0,1.61-0.07,2.36-0.21l0.15,5.93
			c-1.15,0.36-2.82,0.58-4.98,0.58c-2.47,0-4.64-0.61-6.16-2.16c-1.68-1.71-2.56-4.23-2.56-9.4v-18.1h-4.16V56.2h4.16v-7.37
			L227.45,46.88z"/>
		<path d="M247.87,46.88v9.31h6.74v5.53h-6.74v18.03c0,4.26,1.65,5.34,3.56,5.34c0.9,0,1.61-0.07,2.36-0.21l0.15,5.93
			c-1.15,0.36-2.82,0.58-4.98,0.58c-2.47,0-4.64-0.61-6.16-2.16c-1.68-1.71-2.56-4.23-2.56-9.4v-18.1h-4.16V56.2h4.16v-7.37
			L247.87,46.88z"/>
		<path d="M259.19,65.99c0-3.93-0.17-6.72-0.29-9.8h6.65l0.39,4.15h0.14c1.65-2.68,4.44-4.72,8.08-4.72c3.6,0,6.21,1.68,7.45,5h0.14
			c0.89-1.52,2.15-2.87,3.49-3.73c1.4-0.85,3.05-1.28,4.83-1.28c5.54,0,8.71,4.26,8.71,12.84v22.5h-7.58V69.9
			c0-4.21-0.54-7.93-3.96-7.93c-1.94,0-3.52,1.49-4.21,4.07c-0.17,0.7-0.25,1.72-0.25,2.77v22.16h-7.58V68.72
			c0-3.11-0.44-6.75-3.88-6.75c-1.81,0-3.59,1.44-4.23,4.26c-0.18,0.75-0.3,1.75-0.3,2.78v21.96h-7.58V65.99z"/>
		<path d="M320.61,90.96l-0.45-3.54h-0.17c-1.73,2.68-4.31,4.11-7.36,4.11c-4.99,0-8.75-4.18-8.75-10.28
			c0-8.93,7.55-12.71,15.42-12.78v-0.92c0-3.62-1.42-6.17-5.2-6.17c-2.49,0-4.6,0.72-6.48,1.93l-1.47-5.2
			c1.71-1.08,5.37-2.49,9.61-2.49c8.95,0,11.24,6.13,11.24,13.53v13.89c0,2.7,0.08,5.61,0.45,7.92H320.61z M319.5,73.55
			c-2.97,0.04-8.34,0.86-8.34,6.92c0,3.92,2.09,5.34,3.77,5.34c1.91,0,3.75-1.3,4.39-3.98c0.14-0.54,0.18-1.16,0.18-1.77V73.55z"/>
		<path d="M334.11,65.99c0-3.93-0.17-6.72-0.29-9.8h6.61l0.39,4.09h0.14c1.65-2.79,4.58-4.66,8.22-4.66c5.8,0,8.88,4.5,8.88,12.56
			v22.77h-7.62V68.91c0-3.47-0.73-6.87-4.06-6.87c-1.89,0-3.59,1.45-4.26,4.26c-0.22,0.77-0.39,1.89-0.39,3.16v21.5h-7.62V65.99z"/>
		<path d="M365.1,65.99c0-3.93-0.17-6.72-0.29-9.8h6.61l0.39,4.09h0.14c1.65-2.79,4.58-4.66,8.22-4.66c5.8,0,8.88,4.5,8.88,12.56
			v22.77h-7.62V68.91c0-3.47-0.73-6.87-4.06-6.87c-1.89,0-3.59,1.45-4.26,4.26c-0.22,0.77-0.39,1.89-0.39,3.16v21.5h-7.62V65.99z"/>
	</g>
</g>
</svg>
