<?xml version="1.0" encoding="utf-8"?>
<!-- Generator: Adobe Illustrator 22.1.0, SVG Export Plug-In . SVG Version: 6.00 Build 0)  -->
<svg width="50px" height="50px" version="1.1" id="Layer_1" xmlns="http://www.w3.org/2000/svg" xmlns:xlink="http://www.w3.org/1999/xlink" x="0px" y="0px"
	 viewBox="0 0 32 32" style="enable-background:new 0 0 32 32;" xml:space="preserve">
<title>material-design</title>
<path d="M16,0C7.2,0,0,7.2,0,16s7.2,16,16,16s16-7.2,16-16S24.8,0,16,0z M16,1c3.8,0,7.3,1.4,10,3.8H6C8.8,2.3,12.3,1,16,1L16,1z
	 M6.4,5.8h19.2L16,25L6.4,5.8z M4.8,6V26C2.3,23.2,1,19.7,1,16C1,12.2,2.4,8.7,4.8,6L4.8,6z M27.2,6c2.5,2.7,3.8,6.3,3.8,10
	c0,3.8-1.4,7.3-3.8,10V6z M5.8,6.8l9.7,19.4H5.8V6.8z M26.2,6.8v19.4h-9.7L26.2,6.8L26.2,6.8z M6,27.2H26c-2.7,2.5-6.3,3.8-10,3.8
	S8.8,29.7,6,27.2L6,27.2z"/>
</svg>
