<?xml version="1.0" encoding="utf-8"?>
<!-- Generator: Adobe Illustrator 25.4.1, SVG Export Plug-In . SVG Version: 6.00 Build 0)  -->
<svg version="1.1" id="Layer_1" xmlns="http://www.w3.org/2000/svg" xmlns:xlink="http://www.w3.org/1999/xlink" x="0px" y="0px"
	 viewBox="0 0 180 180" style="enable-background:new 0 0 180 180;" xml:space="preserve">
<style type="text/css">
	.st0{fill:#9C6D6F;}
</style>
<path class="st0" d="M12.7,170.8c10.1-1.5,22.7-3.7,29.9-9.3c7.9-6.3,10.8-14.1,10.8-35.6V35.3h19.5v94.9c0,20.4-4,29.7-17.7,37.9
	c-11.5,6.3-29.2,9.6-38.2,10.1L12.7,170.8z M73.2,14c0,7.3-3.6,11.8-10.8,11.8c-6.2,0-10.3-4.5-10.3-11.8c0-7,4.1-11.8,10.8-11.8
	C69.6,2.1,73.2,6.9,73.2,14z"/>
<path class="st0" d="M89.9,176.7c0.2-3.8,1.1-15.5,1.1-20.6V1.8h21.5l-0.1,77.3l-9.1,9.6c7.2-11.8,18-14.5,28.3-14.5
	c17.8,0,35.8,15.3,35.8,52c0,37.2-20.8,52-38.6,52c-16,0-22.8-8-26.5-15.8h-0.9l-1.1,14.1H89.9V176.7z M99.9,141.5
	c0,2.2,0,4.2,0.3,6.1c4.7,19.8,13.7,22.9,19,22.9c15.6,0,20.8-21.4,20.8-44c0-22.1-5.4-44-21.2-44c-9.7,0-17.6,12.5-18.8,23.6
	c-0.2,2.5-0.2,4.8-0.2,7.3L99.9,141.5L99.9,141.5z"/>
</svg>
